<svg width="643" height="613" viewBox="0 0 643 613" fill="none" xmlns="http://www.w3.org/2000/svg">
<path d="M132.893 396.861L2.30128 236.833C-2.50104 230.958 0.597233 222.145 8.03308 220.599L200.436 179.316C203.069 178.698 205.393 177.152 206.942 174.832L315.536 4.75445C319.564 -1.58482 328.859 -1.58482 332.732 4.75445L444.269 184.109C445.663 186.274 447.832 187.82 450.311 188.593L635.432 237.452C642.713 239.462 645.502 248.275 640.39 253.996L502.362 410.313C500.348 412.478 499.573 415.261 499.883 418.198L521.571 601.728C522.5 609.459 514.6 615.334 507.319 612.087L320.184 526.894C317.55 525.811 314.607 525.811 311.973 526.894L126.077 605.903C118.951 608.995 111.05 603.119 111.98 595.389L135.217 404.438C135.527 401.654 134.752 398.871 132.893 396.861Z" fill="#6293FF"/>
</svg>
