<svg width="137" height="137" viewBox="0 0 137 137" fill="none" xmlns="http://www.w3.org/2000/svg">
<path d="M125 68.5C125 99.7041 99.7041 125 68.5 125C37.2959 125 12 99.7041 12 68.5C12 37.2959 37.2959 12 68.5 12C99.7041 12 125 37.2959 125 68.5Z" stroke="black" stroke-width="24"/>
<path d="M75.976 63.4447C85.512 63.4447 89.224 67.7967 89.224 74.0687C89.224 82.5167 82.184 89.8127 69.576 89.8127C57.544 89.8127 48.2 82.3247 48.2 69.5247V64.5967C48.2 53.7167 55.624 44.4367 68.424 44.4367H68.552C80.328 44.5007 88.136 51.9247 88.136 60.7567H73.096V55.3807H64.456V63.4447H75.976ZM73.416 78.9327V70.9967H64.456V78.9327H73.416Z" fill="white"/>
</svg>
