<svg width="118" height="151" viewBox="0 0 118 151" fill="none" xmlns="http://www.w3.org/2000/svg">
<path d="M116.469 52.738L59.4003 25.384L59.2979 25.3348H59.1842H58.7844H58.6708L58.5683 25.384L1.5 52.738V29.0121L58.898 1.5H59.0706L116.469 29.0121V52.738Z" fill="#010101" stroke="black"/>
<path d="M1 53.5321V28.6973L58.7844 1H59.1842L116.969 28.6973V53.5321" stroke="black" stroke-miterlimit="10"/>
<path d="M116.969 53.5321L59.1842 25.8348H58.7844L1 53.5321" stroke="black" stroke-miterlimit="10"/>
<path d="M116.469 77.5728L59.4003 50.2188L59.2979 50.1697H59.1842H58.7844H58.6708L58.5683 50.2188L1.5 77.5728V53.8469L58.898 26.3348H59.0706L116.469 53.8469V77.5728Z" fill="black" stroke="black"/>
<path d="M1 78.3669V53.5321L58.7844 25.8348H59.1842L116.969 53.5321V78.3669" stroke="black" stroke-miterlimit="10"/>
<path d="M116.969 78.3668L59.1842 50.6696H58.7844L1 78.3668" stroke="black" stroke-miterlimit="10"/>
<path d="M116.969 89.3441V114.179L59.1842 86.4817H58.7844L1 114.179V89.3441L58.7844 61.6469H59.1842L116.969 89.3441Z" fill="black"/>
<path d="M1 114.179V89.3441L58.7844 61.6469H59.1842L116.969 89.3441V114.179" stroke="black" stroke-miterlimit="10"/>
<path d="M116.969 114.179L59.1842 86.4816H58.7844L1 114.179" stroke="black" stroke-miterlimit="10"/>
<path d="M116.969 125.165V150L59.1842 122.303H58.7844L1 150V125.165L58.7844 97.4679H59.1842L116.969 125.165Z" fill="black"/>
<path d="M1 150V125.165L58.7844 97.4679H59.1842L116.969 125.165V150" stroke="black" stroke-miterlimit="10"/>
<path d="M116.969 150L59.1842 122.303H58.7844L1 150" stroke="black" stroke-miterlimit="10"/>
</svg>
