<svg width="233" height="223" viewBox="0 0 233 223" fill="none" xmlns="http://www.w3.org/2000/svg">
<path d="M230.257 86.3696C232.891 87.0891 233.902 90.3133 232.066 92.3918L182.057 149.257C181.339 150.056 181.046 151.068 181.153 152.134L189 218.885C189.346 221.71 186.473 223.841 183.84 222.642L116.035 191.652C115.077 191.252 114.013 191.252 113.055 191.652L45.7029 220.377C43.1227 221.497 40.2498 219.365 40.5956 216.54L49.028 147.098C49.1344 146.086 48.8684 145.073 48.1768 144.353L0.827792 86.1298C-0.901244 83.998 0.215979 80.8004 2.90263 80.2141L72.6227 65.2119C73.5803 64.9987 74.4315 64.4125 74.9901 63.5864L114.332 1.73872C115.795 -0.579572 119.147 -0.579572 120.557 1.73872L160.963 66.9706C161.468 67.77 162.266 68.3296 163.144 68.596L230.231 86.3696H230.257Z" fill="#6293FF"/>
</svg>
